<?xml version="1.0" standalone="no"?>
<!DOCTYPE svg PUBLIC "-//W3C//DTD SVG 20010904//EN"
 "http://www.w3.org/TR/2001/REC-SVG-20010904/DTD/svg10.dtd">
<svg version="1.0" xmlns="http://www.w3.org/2000/svg"
 width="24.000000pt" height="24.000000pt" viewBox="0 0 24.000000 24.000000"
 preserveAspectRatio="xMidYMid meet">
<metadata>
Created by potrace 1.16, written by Peter Selinger 2001-2019
</metadata>
<g transform="translate(0.000000,24.000000) scale(0.010667,-0.010667)"
fill="#000000" stroke="none">
<path d="M654 2217 c-101 -153 -134 -222 -164 -350 -24 -98 -24 -97 -6 -97 19
0 27 13 47 85 17 57 18 58 18 22 1 -21 -4 -48 -10 -60 -6 -12 25 16 69 63 44
47 83 82 87 78 5 -4 -6 -36 -24 -72 -17 -35 -31 -73 -31 -84 0 -23 -53 -82
-115 -127 -22 -17 -51 -40 -65 -53 -14 -12 -33 -25 -42 -28 -10 -3 -18 -11
-18 -19 0 -20 -29 -26 -70 -14 -31 10 -48 8 -101 -9 -35 -11 -81 -23 -101 -27
-20 -3 -50 -12 -65 -20 -15 -8 -36 -15 -45 -15 -16 0 -18 -12 -18 -120 0 -66
4 -120 9 -120 5 0 45 13 88 30 88 33 238 62 274 53 33 -9 89 -43 89 -55 0 -5
9 -7 19 -3 11 3 36 -1 56 -10 21 -8 57 -15 82 -15 40 0 44 -2 38 -20 -9 -27
10 -58 66 -110 51 -47 59 -69 75 -200 3 -25 9 -47 13 -50 5 -3 12 -18 18 -34
6 -20 26 -39 62 -59 46 -26 66 -31 164 -37 99 -7 118 -5 162 12 112 44 138 73
149 168 9 72 41 170 80 247 46 93 49 95 108 100 29 3 85 16 125 29 39 13 74
24 78 24 4 0 5 -20 3 -44 -3 -43 -2 -45 24 -43 15 1 30 8 33 15 2 6 13 12 24
12 11 0 23 5 26 10 4 6 11 7 17 4 7 -5 4 -12 -8 -21 -16 -12 -17 -15 -4 -23
13 -8 13 -10 -1 -10 -17 0 -39 -81 -39 -141 0 -24 3 -27 23 -23 12 3 33 4 47
3 14 0 45 0 70 0 106 2 149 2 213 -4 l67 -6 0 229 0 229 -42 7 c-23 4 -48 12
-56 18 -18 16 -164 23 -201 10 -29 -10 -31 -9 -31 14 0 28 -21 31 -60 9 -34
-20 -74 -20 -66 0 3 8 1 15 -4 15 -9 0 -185 119 -205 139 -31 31 -40 50 -46
101 -4 32 -22 89 -42 132 -29 61 -48 85 -96 124 -55 45 -78 76 -73 97 2 5 -3
7 -10 5 -7 -3 -35 4 -63 14 -34 12 -77 18 -137 18 -55 0 -89 4 -94 12 -5 8 -2
9 9 5 9 -3 19 -2 22 3 14 22 -143 2 -182 -23 -7 -4 -29 -10 -50 -13 -20 -2
-40 -8 -43 -13 -5 -9 -68 -8 -73 0 -1 2 0 3 2 1 5 -3 41 50 41 61 0 4 -17 7
-37 7 -32 0 -42 -6 -59 -33z m40 -72 c-5 -11 1 -15 22 -15 15 0 53 -5 85 -12
l56 -11 -60 -46 c-107 -82 -144 -101 -131 -67 4 11 -1 14 -20 12 -25 -3 -26
-2 -20 33 8 44 20 69 47 99 24 26 28 28 21 7z m446 -74 c0 -5 26 -12 58 -16
60 -7 82 -18 82 -41 0 -10 -8 -13 -27 -9 -27 5 -27 5 -4 -5 13 -6 32 -8 42 -5
10 4 26 2 36 -4 16 -8 14 -10 -10 -16 -15 -4 -40 -3 -55 3 -39 15 -147 21
-217 12 -61 -7 -87 -4 -47 7 31 8 27 23 -5 23 l-28 1 35 19 c19 11 50 19 68
20 17 0 32 5 32 10 0 6 9 10 20 10 11 0 20 -4 20 -9z m125 -492 c14 -18 24
-38 21 -46 -3 -7 2 -29 11 -48 13 -27 26 -38 55 -46 21 -5 38 -14 38 -19 0
-13 -10 -13 -48 1 -24 8 -37 7 -61 -5 -22 -12 -45 -14 -88 -10 -47 5 -66 3
-93 -12 l-35 -19 8 -61 8 -62 72 0 c99 0 169 -11 190 -30 18 -16 17 -17 -15
-25 -18 -4 -48 -8 -67 -7 -18 0 -39 -4 -47 -10 -7 -7 -22 -9 -33 -5 -11 3 -36
-1 -56 -10 -21 -8 -40 -15 -43 -15 -12 0 42 50 60 56 10 3 18 10 18 15 0 12
-37 12 -45 -1 -10 -17 -78 -2 -97 21 -9 11 -15 26 -12 34 3 7 -4 31 -16 54
-11 23 -17 41 -13 41 4 0 -2 6 -12 14 -18 13 -18 14 7 9 30 -6 34 -2 133 111
53 61 107 106 127 106 3 0 18 -14 33 -31z m479 -85 c20 -8 21 -34 1 -34 -8 0
-15 -5 -15 -10 0 -6 -8 -13 -17 -16 -65 -21 -142 -58 -137 -66 4 -6 -2 -8 -12
-6 -15 2 -20 14 -22 51 -3 43 -1 48 15 43 10 -3 41 6 68 19 50 24 90 30 119
19z"/>
<path d="M1785 2228 c-22 -11 -43 -26 -47 -32 -11 -16 -10 -51 2 -78 10 -22
16 -23 98 -22 48 1 99 6 114 12 15 6 67 21 115 33 48 11 90 24 93 28 3 4 22 6
42 3 l38 -4 -35 -18 c-19 -9 -46 -15 -60 -13 -18 4 -25 1 -25 -10 0 -16 -13
-22 -145 -67 -49 -16 -107 -30 -127 -30 -21 0 -38 -4 -38 -10 0 -5 -11 -10
-24 -10 -13 0 -27 -6 -29 -12 -4 -9 -6 -8 -7 2 -2 31 -27 -47 -29 -93 -2 -41
1 -48 20 -55 12 -5 40 -6 61 -2 30 6 38 4 38 -8 0 -13 3 -13 18 1 23 21 32 21
32 2 0 -18 12 -19 28 -3 9 9 11 -9 10 -82 l-3 -95 43 -6 c35 -4 42 -3 42 12 0
10 -6 20 -12 23 -8 4 -9 8 -3 11 6 3 9 47 7 112 -4 133 0 153 34 153 13 0 27
7 31 15 6 16 142 85 168 85 11 0 15 13 15 55 0 46 -3 55 -17 55 -17 1 -17 1 0
11 9 5 17 21 17 34 l0 25 -212 0 c-196 -1 -216 -3 -253 -22z"/>
<path d="M1695 1170 c-3 -5 -12 -7 -20 -3 -8 3 -15 0 -15 -6 0 -6 -11 -8 -28
-5 -30 6 -28 9 -79 -113 -3 -9 4 -13 20 -13 14 0 29 -4 32 -10 4 -6 -15 -8
-54 -3 -40 4 -61 2 -61 -5 0 -5 7 -12 15 -16 8 -3 15 -12 15 -21 0 -19 14 -19
30 0 8 9 18 12 27 6 16 -9 92 24 106 47 4 6 19 12 32 12 19 0 23 4 18 18 -4 9
-11 20 -16 24 -6 3 -10 27 -10 52 0 48 -2 52 -12 36z"/>
<path d="M159 426 c-43 -29 -86 -41 -68 -20 22 27 -11 15 -51 -18 -47 -39 -51
-58 -12 -58 23 0 28 4 28 21 -1 12 5 23 12 25 7 1 8 0 2 -3 -14 -6 -13 -33 1
-33 7 0 10 -12 7 -30 -4 -23 0 -30 16 -33 12 -2 3 -5 -19 -6 -46 -2 -88 -27
-67 -40 7 -4 67 -13 135 -20 67 -6 143 -14 169 -18 l48 -6 -4 34 c-2 19 -4 44
-5 57 -1 12 -7 22 -16 22 -8 0 -15 7 -15 16 0 14 -2 15 -16 3 -15 -12 -16 -11
-10 7 9 31 -26 87 -68 106 -32 16 -35 16 -67 -6z"/>
<path d="M1801 122 c-5 -10 -12 -41 -16 -70 l-7 -52 167 1 c158 0 166 1 149
17 -12 12 -30 16 -61 13 -34 -2 -42 0 -38 11 4 10 -16 25 -67 51 -91 45 -116
50 -127 29z"/>
</g>
</svg>
